<svg xmlns="http://www.w3.org/2000/svg" xmlns:xlink="http://www.w3.org/1999/xlink" width="500" zoomAndPan="magnify" viewBox="0 0 375 374.999991" height="500" preserveAspectRatio="xMidYMid meet" version="1.0"><defs><clipPath id="6ff8b9a46f"><path d="M 112.199219 98.519531 L 262.949219 98.519531 L 262.949219 276.269531 L 112.199219 276.269531 Z M 112.199219 98.519531 " clip-rule="nonzero"/></clipPath></defs><rect x="-37.5" width="450" fill="#ffffff" y="-37.499999" height="449.999989" fill-opacity="1"/><rect x="-37.5" width="450" fill="#ffffff" y="-37.499999" height="449.999989" fill-opacity="1"/><g clip-path="url(#6ff8b9a46f)"><path fill="#1493ce" d="M 184.351562 276.238281 C 183.269531 276.140625 181.9375 276.054688 181.386719 276.054688 L 180.382812 276.054688 L 180.199219 274.738281 C 180.097656 274.011719 180.015625 273.234375 180.015625 273.007812 C 180.015625 272.601562 179.96875 272.582031 178.421875 272.386719 C 177.542969 272.273438 175.464844 272.042969 173.800781 271.871094 C 169.191406 271.390625 159.300781 269.988281 152.371094 268.839844 C 148.574219 268.207031 145.625 267.777344 145.0625 267.777344 C 144.699219 267.777344 144.683594 267.832031 144.683594 269.007812 C 144.683594 269.878906 144.742188 270.230469 144.886719 270.230469 C 145 270.230469 145.53125 270.046875 146.074219 269.828125 C 147.5625 269.214844 149.058594 269.332031 147.832031 269.964844 C 147.582031 270.09375 146.777344 270.429688 146.039062 270.714844 C 144.984375 271.121094 144.550781 271.210938 143.996094 271.136719 C 143.609375 271.082031 142.515625 270.972656 141.566406 270.890625 C 140.617188 270.808594 139.148438 270.582031 138.296875 270.386719 C 137.445312 270.191406 136.546875 269.996094 136.296875 269.949219 C 136.046875 269.90625 135.796875 269.789062 135.738281 269.695312 C 135.679688 269.601562 135.589844 268.710938 135.535156 267.714844 L 135.441406 265.902344 L 134.867188 265.792969 C 133.039062 265.429688 132.78125 265.300781 132.484375 264.589844 C 131.917969 263.226562 131.890625 262.125 131.914062 237.597656 C 131.941406 204.585938 132.015625 200.679688 132.65625 198.214844 C 133.519531 194.894531 136.175781 191.652344 138.664062 190.871094 C 139.859375 190.496094 143.761719 190.316406 151.636719 190.265625 C 154.246094 190.25 159.9375 190.164062 164.289062 190.070312 C 172.710938 189.894531 173.6875 189.945312 176.089844 190.691406 C 176.984375 190.972656 176.945312 190.972656 170.449219 191.085938 C 166.847656 191.152344 159.488281 191.246094 154.089844 191.300781 C 140.414062 191.4375 139.304688 191.46875 138.710938 191.78125 C 138.441406 191.921875 138.132812 192.039062 138.027344 192.039062 C 137.632812 192.039062 135.832031 193.90625 135.125 195.042969 C 134.125 196.65625 133.621094 198.277344 133.414062 200.546875 C 133.179688 203.113281 133.121094 206.339844 133.289062 207.375 C 133.394531 208.054688 133.378906 208.238281 133.207031 208.238281 C 132.882812 208.238281 132.898438 261.605469 133.21875 263.195312 C 133.484375 264.503906 133.808594 264.832031 134.84375 264.835938 C 135.609375 264.835938 137.347656 265.128906 141.082031 265.875 C 142.210938 266.101562 144.601562 266.476562 146.398438 266.710938 C 148.199219 266.953125 151.695312 267.46875 154.171875 267.863281 C 160.152344 268.824219 170.855469 270.316406 174.617188 270.714844 C 176.28125 270.894531 178.597656 271.148438 179.769531 271.285156 C 183.632812 271.734375 187.757812 272.042969 187.90625 271.894531 C 187.988281 271.8125 187.980469 269.171875 187.882812 265.636719 C 187.644531 256.996094 187.507812 207.683594 187.714844 205.210938 C 188.121094 200.347656 188.398438 198.933594 189.457031 196.375 C 189.949219 195.191406 190.25 194.824219 190.746094 194.824219 C 191.117188 194.824219 191.117188 194.824219 190.570312 196.007812 C 189.960938 197.324219 189.292969 199.535156 188.976562 201.28125 C 188.816406 202.1875 188.78125 208.421875 188.828125 230.808594 C 188.867188 250.714844 188.824219 261.0625 188.683594 265.457031 C 188.578125 268.902344 188.527344 271.765625 188.578125 271.816406 C 188.679688 271.917969 193.296875 271.523438 196.617188 271.128906 C 197.699219 271.003906 199.644531 270.78125 200.941406 270.640625 C 202.238281 270.496094 203.425781 270.3125 203.578125 270.226562 C 204.101562 269.945312 204.398438 268.792969 204.574219 266.324219 C 204.832031 262.6875 204.972656 255.9375 204.859375 252.648438 C 204.804688 251.027344 204.675781 243.519531 204.574219 235.964844 C 204.371094 220.785156 204.027344 208.019531 203.640625 201.320312 C 203.398438 197.121094 203.367188 196.894531 202.921875 195.894531 C 202.332031 194.585938 201.550781 193.710938 200.1875 192.851562 C 198.722656 191.925781 197.832031 191.566406 197.269531 191.675781 C 196.871094 191.75 196.710938 191.65625 196.21875 191.09375 C 195.824219 190.636719 195.269531 190.261719 194.492188 189.929688 C 193.398438 189.457031 193.375 189.4375 193.941406 189.429688 C 194.269531 189.429688 195.410156 189.640625 196.476562 189.910156 C 199.761719 190.734375 202.613281 192.417969 203.386719 193.984375 C 204.296875 195.835938 204.597656 198.726562 205.121094 210.691406 C 205.449219 218.246094 205.523438 221.460938 205.746094 237.515625 C 205.988281 255.351562 205.914062 262.503906 205.445312 266.269531 C 205.386719 266.742188 205.375 267.226562 205.417969 267.347656 C 205.488281 267.515625 206.015625 267.480469 208.09375 267.175781 C 213.621094 266.359375 216.648438 265.988281 221.320312 265.570312 C 222.941406 265.421875 225.285156 265.195312 226.53125 265.0625 C 227.777344 264.925781 228.824219 264.839844 228.847656 264.867188 C 228.875 264.890625 228.859375 265.109375 228.8125 265.347656 C 228.722656 265.808594 228.289062 265.976562 227.195312 265.976562 C 226.46875 265.976562 226.339844 266.25 227.003906 266.394531 C 227.882812 266.585938 228.433594 266.9375 228.433594 267.3125 C 228.433594 267.632812 228.371094 267.648438 227.617188 267.550781 C 226.449219 267.394531 224.625 266.8125 224.398438 266.527344 C 224.234375 266.3125 223.875 266.316406 221.292969 266.546875 C 218.011719 266.84375 212.566406 267.464844 208.886719 267.957031 C 205.179688 268.457031 205.371094 268.414062 205.371094 268.742188 C 205.371094 269.304688 205.015625 270.054688 204.699219 270.15625 C 204.527344 270.210938 204.273438 270.46875 204.140625 270.726562 C 203.972656 271.050781 203.699219 271.253906 203.28125 271.363281 C 202.855469 271.480469 197.242188 272.195312 196.765625 272.195312 C 196.753906 272.195312 196.699219 272.398438 196.648438 272.652344 C 196.453125 273.632812 195.78125 274.105469 193.824219 274.636719 C 192.828125 274.902344 191.464844 275.242188 190.796875 275.386719 C 190.128906 275.535156 189.375 275.800781 189.121094 275.984375 C 188.535156 276.402344 187.011719 276.484375 184.351562 276.238281 Z M 187.628906 274.4375 C 187.636719 273.636719 187.996094 273.03125 188.339844 273.246094 C 188.441406 273.304688 188.523438 273.71875 188.523438 274.164062 C 188.523438 274.703125 188.589844 274.972656 188.726562 274.96875 C 188.890625 274.96875 192.617188 274.03125 195.25 273.328125 C 195.695312 273.210938 195.863281 273.066406 195.921875 272.761719 C 196.019531 272.257812 196.429688 272.257812 191.003906 272.761719 C 186.761719 273.15625 186.527344 273.160156 183.871094 272.925781 C 182.359375 272.792969 181.070312 272.722656 181 272.761719 C 180.933594 272.804688 180.960938 273.300781 181.0625 273.867188 C 181.222656 274.777344 181.289062 274.894531 181.652344 274.9375 C 183.371094 275.132812 185.363281 275.257812 186.394531 275.242188 L 187.621094 275.21875 Z M 143.828125 268.800781 C 143.882812 267.449219 144.140625 267.636719 141.65625 267.195312 C 140.847656 267.050781 139.667969 266.796875 139.039062 266.628906 C 137.363281 266.183594 136.554688 266.082031 136.421875 266.300781 C 136.359375 266.402344 136.359375 267.003906 136.425781 267.636719 C 136.535156 268.753906 136.554688 268.796875 137.097656 269.023438 C 138.125 269.449219 141.8125 270.050781 143.128906 270.003906 L 143.785156 269.984375 Z M 232.382812 272.441406 C 230.921875 272.109375 229.988281 271.726562 229.574219 271.285156 C 229.0625 270.738281 228.996094 269.234375 229.429688 267.890625 C 229.757812 266.882812 229.828125 266.304688 230.308594 260.984375 C 230.953125 253.769531 231.425781 249.039062 231.867188 245.363281 C 232.128906 243.160156 232.425781 240.472656 232.527344 239.394531 C 232.625 238.3125 232.847656 236.546875 233.019531 235.46875 C 233.1875 234.386719 233.410156 232.804688 233.507812 231.949219 C 233.734375 229.984375 235.058594 221.308594 235.386719 219.679688 C 235.855469 217.3125 236.75 211.238281 236.921875 209.292969 C 237.300781 204.933594 237.773438 200.058594 237.941406 198.773438 C 238.039062 198.027344 238.085938 197.378906 238.050781 197.339844 C 237.9375 197.230469 236.378906 197.804688 234.160156 198.785156 C 231.222656 200.085938 228.667969 201.113281 227.417969 201.5 C 226.824219 201.683594 226.199219 201.914062 226.035156 202.007812 C 225.871094 202.101562 223.125 203.054688 219.929688 204.125 C 216.734375 205.191406 213.238281 206.398438 212.160156 206.800781 C 209.898438 207.644531 206.085938 208.886719 205.757812 208.886719 C 205.503906 208.886719 205.46875 208.585938 205.683594 208.253906 C 205.757812 208.125 207.25 207.527344 208.992188 206.917969 C 210.734375 206.308594 215.46875 204.652344 219.519531 203.246094 C 223.566406 201.832031 227.359375 200.511719 227.945312 200.300781 C 229.714844 199.675781 232.179688 198.660156 234.078125 197.769531 C 235.070312 197.308594 236.207031 196.855469 236.605469 196.765625 C 237.007812 196.675781 237.6875 196.425781 238.117188 196.207031 C 238.546875 195.992188 238.933594 195.878906 238.984375 195.957031 C 239.0625 196.085938 238.632812 201.726562 238 208.804688 C 237.757812 211.527344 236.71875 218.757812 236.148438 221.660156 C 236.050781 222.144531 235.890625 223.121094 235.789062 223.824219 C 235.6875 224.527344 235.582031 225.261719 235.554688 225.460938 C 234.886719 229.859375 233.839844 237.617188 233.667969 239.476562 C 233.570312 240.507812 233.273438 243.195312 233.007812 245.445312 C 232.578125 249.109375 232.339844 251.523438 231.464844 260.902344 C 231.035156 265.550781 230.9375 266.1875 230.496094 267.476562 C 229.898438 269.234375 229.890625 269.21875 231.011719 269.109375 C 231.53125 269.0625 233.5 269.019531 235.386719 269.011719 C 238.179688 269.011719 239.066406 269.0625 240.132812 269.308594 C 241.996094 269.742188 242.667969 270.113281 242.667969 270.707031 C 242.667969 271.402344 241.921875 271.945312 240.503906 272.285156 C 238.875 272.675781 233.859375 272.769531 232.382812 272.441406 Z M 240.351562 271.210938 C 240.832031 271.101562 241.164062 270.953125 241.085938 270.878906 C 241.011719 270.804688 240.507812 270.617188 239.964844 270.464844 C 239.210938 270.246094 238.109375 270.167969 235.171875 270.109375 C 231.425781 270.035156 230.457031 270.089844 230.636719 270.382812 C 230.746094 270.554688 232.484375 271.148438 233.515625 271.367188 C 234.484375 271.574219 239.25 271.460938 240.351562 271.210938 Z M 190.988281 266.425781 C 190.882812 265.410156 190.761719 264.402344 190.71875 264.175781 C 190.570312 263.382812 190.359375 237.59375 190.5 237.441406 C 190.753906 237.171875 190.84375 237.460938 191.0625 239.261719 C 191.300781 241.21875 191.527344 268.265625 191.304688 268.265625 C 191.238281 268.265625 191.097656 267.4375 190.988281 266.425781 Z M 231.140625 267.570312 C 231.308594 267.015625 231.367188 266.980469 232.816406 266.679688 C 233.558594 266.523438 234.160156 266.339844 234.160156 266.265625 C 234.160156 266.199219 234.046875 266.136719 233.910156 266.136719 C 233.773438 266.136719 233.589844 265.953125 233.503906 265.726562 C 233.359375 265.335938 233.300781 265.324219 232.445312 265.421875 C 231.945312 265.480469 231.546875 265.464844 231.554688 265.382812 C 231.597656 264.832031 231.871094 264.585938 232.621094 264.425781 L 233.425781 264.253906 L 233.46875 260.996094 C 233.496094 259.097656 233.582031 257.65625 233.679688 257.539062 C 233.785156 257.410156 233.832031 255.03125 233.808594 250.738281 C 233.769531 244.699219 233.796875 243.875 234.140625 241.113281 C 234.902344 234.992188 234.96875 234.992188 234.875 241.113281 C 234.824219 244.125 234.710938 248.46875 234.621094 250.761719 C 234.332031 257.859375 234.269531 263.835938 234.484375 264.089844 C 234.628906 264.261719 234.628906 264.402344 234.484375 264.671875 C 234.378906 264.863281 234.335938 265.058594 234.386719 265.109375 C 234.59375 265.316406 238.019531 265.160156 240.09375 264.84375 C 242.550781 264.472656 243.808594 264.132812 244.511719 263.640625 C 245.085938 263.242188 245.542969 263.367188 245.285156 263.847656 C 244.734375 264.871094 241.675781 265.71875 237.289062 266.0625 C 236.46875 266.128906 235.796875 266.246094 235.796875 266.320312 C 235.796875 266.578125 233.929688 267.402344 232.734375 267.671875 C 231.144531 268.03125 231.003906 268.023438 231.140625 267.570312 Z M 208.394531 265.804688 C 208.335938 265.707031 208.605469 265.21875 208.996094 264.710938 C 210.296875 263.015625 217.238281 256.195312 217.445312 256.402344 C 217.496094 256.453125 216.875 257.175781 216.0625 258.007812 C 215.246094 258.832031 213.351562 260.894531 211.84375 262.582031 C 209.097656 265.660156 208.59375 266.132812 208.394531 265.804688 Z M 206.085938 265.574219 C 206.035156 265.441406 206.09375 265.195312 206.214844 265.027344 C 206.453125 264.683594 209.535156 261.234375 211.34375 259.28125 C 211.972656 258.597656 213.074219 257.347656 213.796875 256.5 C 215.8125 254.117188 216.132812 253.78125 216.25 253.898438 C 216.308594 253.960938 216.308594 254.167969 216.246094 254.367188 C 216.109375 254.796875 213.273438 258.347656 211.675781 260.089844 C 211.042969 260.78125 209.785156 262.175781 208.886719 263.1875 C 206.605469 265.753906 206.550781 265.8125 206.355469 265.8125 C 206.253906 265.8125 206.136719 265.703125 206.085938 265.574219 Z M 201.9375 261.851562 C 201.9375 260.65625 202.058594 257.652344 202.210938 255.179688 C 202.375 252.417969 202.484375 248.128906 202.496094 244.070312 C 202.503906 239.324219 202.558594 237.441406 202.691406 237.398438 C 202.96875 237.304688 203.054688 237.941406 203.257812 241.519531 C 203.527344 246.277344 203.242188 254.863281 202.671875 259.101562 C 202.542969 260.050781 202.390625 261.503906 202.328125 262.339844 C 202.265625 263.175781 202.152344 263.898438 202.074219 263.945312 C 202 263.992188 201.933594 263.050781 201.9375 261.851562 Z M 245.777344 263.765625 C 245.777344 263.632812 245.832031 263.523438 245.902344 263.523438 C 245.976562 263.523438 246.160156 263.308594 246.3125 263.042969 C 246.566406 262.617188 246.59375 261.894531 246.601562 255.726562 C 246.609375 251.960938 246.558594 245.566406 246.5 241.515625 C 246.378906 233.644531 246.359375 233.863281 247.167969 233.726562 C 247.492188 233.667969 247.492188 233.742188 247.445312 248.136719 C 247.398438 262.113281 247.386719 262.621094 247.082031 263.117188 C 246.90625 263.398438 246.574219 263.714844 246.34375 263.820312 C 245.804688 264.0625 245.777344 264.0625 245.777344 263.765625 Z M 137.648438 263.269531 C 137.648438 262.847656 142.65625 255.789062 144.066406 254.222656 C 144.605469 253.625 145.449219 252.519531 145.9375 251.769531 C 146.429688 251.019531 146.875 250.441406 146.921875 250.492188 C 147.054688 250.625 144.558594 254.527344 142.410156 257.542969 C 141.386719 258.988281 140.195312 260.6875 139.765625 261.328125 C 139.332031 261.96875 138.75 262.6875 138.464844 262.925781 C 137.980469 263.332031 137.648438 263.46875 137.648438 263.269531 Z M 231.871094 262.582031 C 231.875 261.949219 232.125 261.582031 232.378906 261.835938 C 232.527344 261.988281 232.523438 262.144531 232.367188 262.53125 C 232.109375 263.152344 231.871094 263.175781 231.871094 262.582031 Z M 135.03125 261.917969 C 135.03125 261.738281 135.449219 261.015625 135.957031 260.304688 C 136.464844 259.601562 138.195312 257.050781 139.804688 254.640625 C 141.417969 252.230469 143.34375 249.433594 144.089844 248.425781 C 144.832031 247.417969 145.757812 246.125 146.140625 245.554688 C 146.523438 244.984375 146.875 244.554688 146.917969 244.597656 C 147.054688 244.738281 145.460938 247.308594 141.589844 253.214844 C 137.980469 258.722656 135.621094 262.042969 135.226562 262.175781 C 135.121094 262.210938 135.03125 262.09375 135.03125 261.917969 Z M 236.066406 258.988281 C 235.929688 255.082031 235.929688 244.738281 236.066406 243.605469 C 236.195312 242.519531 236.550781 242.453125 236.703125 243.484375 C 236.820312 244.269531 236.675781 257.410156 236.515625 260.167969 C 236.464844 261.070312 236.367188 261.863281 236.300781 261.933594 C 236.230469 262.003906 236.125 260.679688 236.066406 258.988281 Z M 185.25 261.230469 C 185.25 261.140625 185.324219 261.070312 185.414062 261.070312 C 185.503906 261.070312 185.578125 261.140625 185.578125 261.230469 C 185.578125 261.324219 185.503906 261.394531 185.414062 261.394531 C 185.324219 261.394531 185.25 261.320312 185.25 261.230469 Z M 244.410156 253.914062 C 244.242188 247.53125 244.273438 240.65625 244.476562 240.53125 C 244.570312 240.472656 244.695312 240.464844 244.746094 240.515625 C 244.800781 240.566406 244.914062 241.878906 245.003906 243.433594 C 245.210938 246.886719 244.972656 257.8125 244.699219 257.90625 C 244.570312 257.945312 244.488281 256.71875 244.410156 253.910156 Z M 185.183594 251.890625 C 185.144531 251.761719 185.0625 250.707031 185.007812 249.535156 C 184.949219 248.367188 184.796875 246.453125 184.667969 245.285156 C 184.382812 242.628906 184.3125 223.078125 184.589844 222.980469 C 184.691406 222.949219 184.761719 223.214844 184.765625 223.632812 C 184.765625 224.023438 184.847656 224.640625 184.949219 224.996094 C 185.105469 225.578125 185.457031 251.859375 185.308594 252.054688 C 185.28125 252.085938 185.222656 252.011719 185.183594 251.890625 Z M 206.957031 243.769531 C 206.910156 242.082031 206.753906 239.671875 206.609375 238.410156 C 206.273438 235.527344 206.175781 228.988281 206.46875 228.886719 C 206.578125 228.847656 206.699219 228.992188 206.738281 229.199219 C 207.105469 231.105469 207.527344 246.835938 207.207031 246.835938 C 207.105469 246.835938 207.007812 245.703125 206.957031 243.769531 Z M 231.691406 233.898438 C 231.6875 232.511719 231.628906 229.796875 231.5625 227.859375 L 231.445312 224.34375 L 230.902344 223.289062 C 229.746094 221.039062 228.496094 219.804688 226.882812 219.308594 C 225.953125 219.027344 218.242188 219.105469 214.121094 219.4375 C 209.59375 219.804688 206.6875 219.917969 206.503906 219.734375 C 206.410156 219.640625 206.425781 219.480469 206.554688 219.316406 C 206.765625 219.042969 206.714844 219.050781 213.453125 218.449219 C 214.882812 218.320312 218.058594 218.132812 220.515625 218.03125 C 224.542969 217.863281 225.011719 217.871094 225.351562 218.109375 C 225.578125 218.265625 226.058594 218.375 226.550781 218.375 C 227.558594 218.375 229.09375 219.054688 229.902344 219.863281 C 230.777344 220.742188 231.625 222.171875 231.832031 223.132812 C 231.9375 223.617188 232.097656 226.003906 232.1875 228.433594 C 232.324219 232.089844 232.308594 233.144531 232.113281 234.550781 C 231.980469 235.488281 231.832031 236.292969 231.789062 236.335938 C 231.742188 236.382812 231.699219 235.285156 231.691406 233.898438 Z M 229.089844 232.152344 C 229.085938 231.1875 228.976562 229.179688 228.84375 227.699219 C 228.546875 224.382812 228.546875 224.425781 228.824219 224.425781 C 229.070312 224.425781 229.324219 225.605469 229.503906 227.574219 C 229.632812 228.964844 229.417969 233.910156 229.230469 233.910156 C 229.152344 233.910156 229.089844 233.121094 229.085938 232.152344 Z M 243.035156 233.804688 C 242.921875 233.761719 242.828125 233.535156 242.828125 233.304688 C 242.828125 233.042969 242.503906 232.476562 241.957031 231.804688 C 240.375 229.839844 240.203125 229.574219 237.015625 224.015625 C 236.648438 223.375 236.644531 223.339844 236.890625 222.242188 L 237.144531 221.125 L 237.859375 222.460938 C 238.25 223.195312 238.714844 223.992188 238.882812 224.234375 C 239.054688 224.472656 239.613281 225.445312 240.136719 226.386719 C 240.652344 227.332031 241.625 228.898438 242.304688 229.863281 L 243.527344 231.621094 L 245.265625 229.917969 C 247.585938 227.644531 248.429688 226.949219 250.050781 225.984375 C 251.914062 224.878906 253.105469 224.421875 254.214844 224.390625 C 255.355469 224.359375 255.664062 224.65625 255.515625 225.628906 C 255.195312 227.6875 252.734375 229.816406 247.902344 232.210938 C 244.996094 233.648438 243.699219 234.074219 243.035156 233.804688 Z M 244.96875 232.460938 C 246.488281 231.933594 249.566406 230.378906 251.125 229.355469 C 253.566406 227.753906 254.445312 226.8125 254.445312 225.800781 C 254.445312 225.375 254.421875 225.367188 253.644531 225.441406 C 252.722656 225.53125 250.824219 226.386719 249.390625 227.359375 C 248.449219 228 245.230469 230.9375 244.542969 231.785156 C 243.613281 232.933594 243.613281 232.933594 244.96875 232.460938 Z M 246.445312 211.953125 L 246.5 196.207031 L 246.121094 195.0625 C 245.242188 192.421875 244.578125 191.199219 243.378906 190.007812 C 242.691406 189.328125 241.335938 188.605469 240.730469 188.605469 L 240.355469 188.601562 L 240.703125 188.109375 C 241.140625 187.496094 241.65625 187.472656 242.78125 188.035156 C 244.617188 188.949219 246.441406 191.609375 246.921875 194.082031 C 247.023438 194.621094 247.179688 195.1875 247.257812 195.339844 C 247.335938 195.496094 247.453125 202.613281 247.515625 211.230469 L 247.628906 226.839844 L 247.199219 227.269531 C 246.964844 227.503906 246.683594 227.699219 246.582031 227.699219 C 246.4375 227.699219 246.402344 223.84375 246.445312 211.953125 Z M 257.550781 227.257812 C 257.628906 227.007812 257.890625 226.210938 258.125 225.488281 C 258.476562 224.425781 258.535156 224.011719 258.449219 223.292969 C 258.300781 222.082031 258.238281 221.972656 257.707031 221.972656 C 257.179688 221.972656 256.910156 221.675781 257.246094 221.464844 C 257.371094 221.386719 257.742188 221.324219 258.082031 221.320312 C 258.878906 221.320312 259.199219 221.796875 259.308594 223.167969 C 259.414062 224.449219 259.074219 225.714844 258.332031 226.808594 C 257.699219 227.738281 257.332031 227.953125 257.550781 227.257812 Z M 261.589844 226.101562 C 262.035156 225.042969 261.59375 220.746094 260.972656 220.097656 C 260.664062 219.777344 260.816406 219.496094 261.273438 219.550781 C 261.597656 219.585938 261.796875 219.757812 262 220.175781 C 262.390625 220.96875 262.664062 222.878906 262.53125 223.851562 C 262.40625 224.761719 261.683594 226.714844 261.46875 226.714844 C 261.394531 226.714844 261.445312 226.441406 261.589844 226.101562 Z M 206.449219 224.835938 C 206.351562 223.65625 206.382812 223.339844 206.652344 222.730469 C 206.824219 222.335938 207.050781 221.960938 207.148438 221.902344 C 207.417969 221.734375 207.375 221.480469 207.078125 221.480469 C 206.9375 221.480469 206.863281 221.421875 206.90625 221.34375 C 206.953125 221.265625 208.816406 221.15625 211.046875 221.09375 C 213.277344 221.035156 215.949219 220.914062 216.984375 220.828125 C 218.019531 220.742188 219.566406 220.640625 220.417969 220.605469 C 221.273438 220.570312 222.402344 220.414062 222.925781 220.257812 C 223.875 219.980469 225 220.023438 225 220.335938 C 225 220.515625 224.140625 220.683594 223.367188 220.65625 C 223.050781 220.636719 222.273438 220.789062 221.648438 220.980469 C 220.472656 221.339844 219.789062 221.402344 211.625 221.867188 C 208.726562 222.03125 207.929688 222.125 207.722656 222.328125 C 207.390625 222.660156 206.851562 224.628906 206.847656 225.53125 C 206.835938 226.75 206.566406 226.273438 206.449219 224.835938 Z M 234.039062 223.363281 C 234.035156 221.78125 234.0625 221.546875 234.179688 222.144531 C 234.257812 222.570312 234.261719 223.417969 234.179688 224.109375 C 234.039062 225.308594 234.039062 225.300781 234.039062 223.363281 Z M 233.273438 217.046875 C 232.742188 216.019531 231.742188 214.300781 231.046875 213.21875 C 230.355469 212.140625 229.546875 210.777344 229.253906 210.195312 C 228.960938 209.609375 228.078125 208.097656 227.292969 206.839844 C 225.835938 204.511719 225.261719 203.488281 225.355469 203.414062 C 225.570312 203.242188 226.554688 203.015625 226.65625 203.117188 C 226.941406 203.40625 229.957031 208.335938 230.464844 209.34375 C 230.765625 209.945312 231.527344 211.214844 232.152344 212.15625 C 233.871094 214.761719 234.652344 216.359375 234.644531 217.234375 C 234.640625 217.636719 234.546875 218.175781 234.4375 218.4375 C 234.234375 218.90625 234.230469 218.902344 233.273438 217.046875 Z M 234.523438 214.320312 L 233.984375 213.609375 L 233.835938 209.816406 C 233.753906 207.726562 233.636719 204.722656 233.570312 203.136719 L 233.460938 200.246094 L 233.953125 199.992188 L 234.449219 199.734375 L 234.546875 200.425781 C 234.683594 201.410156 235.175781 213.582031 235.113281 214.371094 L 235.058594 215.03125 Z M 134.8125 211.707031 C 134.320312 206.34375 134.3125 203.902344 134.78125 200.996094 C 135.035156 199.4375 135.246094 198.90625 135.605469 198.90625 C 135.859375 198.90625 135.84375 199.265625 135.5 201.441406 C 135.277344 202.867188 135.027344 209.882812 135.144531 211.460938 C 135.265625 213.113281 134.964844 213.339844 134.8125 211.707031 Z M 184.992188 210.929688 C 184.53125 205.84375 185.585938 198.289062 186.820312 197.816406 C 187.222656 197.660156 187.277344 197.886719 186.996094 198.539062 C 186.351562 200.027344 186.0625 201.839844 185.660156 206.921875 C 185.429688 209.753906 185.222656 212.183594 185.195312 212.320312 C 185.167969 212.457031 185.078125 211.828125 184.992188 210.929688 Z M 222.5 198.78125 C 221.828125 197.636719 220.59375 195.484375 219.761719 194 C 218.929688 192.515625 218.078125 191.039062 217.878906 190.71875 C 217.675781 190.394531 217.210938 189.550781 216.84375 188.835938 C 216.476562 188.121094 216.113281 187.4375 216.03125 187.316406 C 215.910156 187.140625 215.609375 187.273438 214.597656 187.957031 C 213.894531 188.433594 212.875 189.230469 212.328125 189.738281 C 209.875 192.007812 205.019531 195.695312 204.847656 195.421875 C 204.578125 195 204.765625 194.703125 205.816406 193.917969 C 207.851562 192.398438 210.859375 189.96875 211.921875 188.984375 C 212.5 188.449219 213.546875 187.617188 214.246094 187.140625 C 214.941406 186.664062 215.511719 186.21875 215.511719 186.152344 C 215.511719 186.085938 214.535156 185.980469 213.34375 185.921875 C 208.195312 185.65625 203.617188 184.976562 196.246094 183.375 C 194.152344 182.921875 192.191406 182.550781 191.894531 182.550781 C 191.039062 182.550781 190.320312 182.363281 190.320312 182.144531 C 190.320312 181.941406 188.121094 180.859375 187.359375 180.6875 C 186.21875 180.429688 179.289062 174.039062 176.601562 170.773438 C 175.828125 169.824219 174.417969 168.136719 173.46875 167.007812 C 171.105469 164.210938 170.335938 163.203125 168.574219 160.578125 C 167.738281 159.339844 167.027344 158.351562 166.988281 158.386719 C 166.832031 158.546875 168.007812 165.492188 168.988281 170.132812 C 170.390625 176.78125 171.074219 179.433594 172.472656 183.53125 C 173.097656 185.371094 173.582031 186.910156 173.550781 186.945312 C 173.394531 187.101562 172.316406 186.757812 172.183594 186.507812 C 171.835938 185.855469 170.003906 180.164062 169.484375 178.132812 C 168.464844 174.132812 166.800781 165.847656 166.253906 162.0625 C 165.957031 160.011719 165.671875 158.339844 165.613281 158.339844 C 165.554688 158.339844 165.371094 158.910156 165.214844 159.605469 C 164.636719 162.082031 162.195312 170.878906 161.628906 172.5 C 160.363281 176.132812 158.746094 182.636719 159.007812 183.054688 C 159.207031 183.382812 160.609375 183.953125 164.253906 185.183594 C 168.476562 186.613281 171.730469 187.527344 177.316406 188.847656 C 182.070312 189.96875 184.445312 190.363281 184.957031 190.121094 C 185.777344 189.730469 187.671875 189.546875 190.238281 189.613281 C 192.523438 189.667969 192.957031 189.726562 193.671875 190.046875 C 194.839844 190.574219 195.226562 190.992188 195.226562 191.707031 C 195.226562 192.980469 193.605469 193.824219 190.648438 194.089844 C 187.761719 194.347656 185.515625 193.507812 184.511719 191.792969 C 184.382812 191.574219 183.925781 191.453125 182.546875 191.28125 C 181.5625 191.15625 179.5 190.761719 177.972656 190.410156 C 176.441406 190.054688 174.96875 189.730469 174.699219 189.683594 C 174.257812 189.609375 171.699219 188.878906 167.667969 187.675781 C 165.660156 187.078125 160.066406 185.101562 159.382812 184.75 C 158.058594 184.0625 157.960938 183.921875 158.039062 182.816406 C 158.082031 182.265625 158.1875 181.332031 158.28125 180.75 C 158.484375 179.433594 159.890625 174.351562 160.542969 172.558594 C 161.121094 170.984375 162.734375 165.285156 164.453125 158.75 C 165.269531 155.648438 165.324219 155.113281 165.082031 152.621094 L 164.882812 150.582031 L 163.742188 150.316406 C 158.609375 149.144531 152.804688 145.800781 149.679688 142.222656 C 147.382812 139.585938 146.199219 137.304688 145.375 133.914062 C 144.921875 132.046875 144.976562 126.007812 145.46875 123.539062 C 146.304688 119.363281 148.113281 115.375 150.640625 112.140625 C 152.972656 109.15625 155.34375 107.496094 159.050781 106.246094 C 160.464844 105.773438 160.875 105.550781 161.6875 104.816406 C 163.925781 102.800781 172.007812 98.957031 174.007812 98.957031 C 174.320312 98.957031 174.890625 98.847656 175.277344 98.714844 C 175.664062 98.578125 176.015625 98.503906 176.0625 98.546875 C 176.207031 98.699219 176.1875 98.703125 171.511719 100.621094 C 170.207031 101.15625 168.253906 102.03125 167.171875 102.5625 C 165.195312 103.542969 162.96875 104.800781 163.574219 104.601562 C 165.226562 104.054688 167.5 103.707031 169.441406 103.707031 C 171.542969 103.707031 171.546875 103.707031 173.941406 102.875 C 177.113281 101.777344 180.261719 100.960938 182.425781 100.671875 C 184.617188 100.382812 184.59375 100.382812 184.59375 100.671875 C 184.59375 100.816406 184.320312 100.980469 183.902344 101.085938 C 183.519531 101.183594 182.800781 101.40625 182.304688 101.582031 C 181.8125 101.753906 180.609375 102.085938 179.632812 102.3125 C 178.65625 102.539062 176.996094 102.996094 175.949219 103.328125 C 174.101562 103.914062 174.0625 103.933594 174.617188 104.078125 C 177.246094 104.753906 180.589844 106.285156 182.894531 107.875 C 187.421875 110.988281 190.496094 114.976562 192.183594 119.910156 C 193.175781 122.820312 193.46875 124.53125 193.472656 127.421875 C 193.480469 131.226562 192.972656 133.511719 191.367188 136.898438 C 189.597656 140.632812 186.746094 144.171875 183.785156 146.300781 C 180.976562 148.324219 176.960938 150.003906 173.589844 150.566406 C 171.949219 150.839844 167.242188 150.941406 166.371094 150.722656 C 165.921875 150.609375 165.921875 150.613281 166.011719 151.324219 C 166.066406 151.71875 166.179688 152.714844 166.273438 153.539062 C 166.464844 155.238281 166.40625 155.125 169.226562 159.21875 C 171.269531 162.1875 172.078125 163.230469 174.699219 166.273438 C 175.789062 167.535156 177.125 169.117188 177.675781 169.792969 C 179.265625 171.734375 186.253906 178.46875 187.621094 179.375 C 187.890625 179.554688 188.921875 180.085938 189.910156 180.554688 C 191.34375 181.234375 192.027344 181.457031 193.265625 181.644531 C 194.121094 181.773438 197.027344 182.320312 199.726562 182.859375 C 207.054688 184.316406 211.726562 184.792969 220.566406 184.988281 C 225.023438 185.089844 226.199219 185.070312 226.949219 184.882812 C 227.492188 184.746094 229.1875 184.617188 231.152344 184.5625 C 234.832031 184.460938 236.011719 184.621094 238.1875 185.515625 C 240.039062 186.28125 240.535156 187.117188 239.722656 188.109375 C 239.3125 188.613281 239.203125 188.652344 237.828125 188.789062 C 236.960938 188.875 232.777344 188.859375 227.535156 188.753906 C 217.984375 188.5625 218.597656 188.628906 218.101562 187.722656 C 217.9375 187.421875 218.042969 187.414062 221.710938 187.488281 C 225.230469 187.5625 225.519531 187.59375 225.859375 187.902344 C 226.421875 188.410156 226.816406 188.5625 227.578125 188.5625 C 228.523438 188.5625 228.601562 188.332031 227.746094 188.105469 C 226.9375 187.890625 225.492188 187.144531 225.492188 186.941406 C 225.492188 186.863281 225.34375 186.65625 225.164062 186.476562 C 224.855469 186.167969 224.617188 186.148438 220.910156 186.148438 C 217.691406 186.148438 216.984375 186.191406 216.984375 186.375 C 216.984375 186.496094 217.453125 187.398438 218.023438 188.378906 C 219.765625 191.355469 223.941406 198.4375 224.570312 199.480469 L 225.164062 200.460938 L 224.714844 200.660156 C 223.863281 201.03125 223.773438 200.953125 222.5 198.785156 Z M 192.480469 192.835938 C 193.648438 192.589844 194.277344 192.25 194.214844 191.90625 C 194.1875 191.75 193.765625 191.417969 193.289062 191.15625 C 192.597656 190.789062 192.136719 190.675781 191.082031 190.609375 C 188.71875 190.460938 185.902344 190.96875 185.902344 191.539062 C 185.902344 191.785156 186.910156 192.421875 187.785156 192.722656 C 188.75 193.054688 191.160156 193.113281 192.480469 192.835938 Z M 238.542969 187.515625 C 239.144531 187.355469 238.882812 187.085938 237.570312 186.519531 C 235.488281 185.621094 234.199219 185.4375 230.644531 185.539062 C 227.691406 185.617188 226.472656 185.804688 226.472656 186.171875 C 226.472656 186.515625 228.851562 187.277344 230.644531 187.507812 C 231.480469 187.613281 238.148438 187.621094 238.542969 187.507812 Z M 174.628906 149.109375 C 182.242188 147.523438 187.867188 142.800781 190.789062 135.535156 C 191.859375 132.867188 192.042969 131.710938 192.027344 127.667969 C 192.019531 124.890625 191.988281 124.613281 191.496094 122.757812 C 190.671875 119.667969 189.824219 117.742188 188.222656 115.316406 C 185.214844 110.757812 179.058594 106.480469 173.964844 105.402344 C 170.453125 104.664062 165.984375 104.734375 162.898438 105.582031 L 162.101562 105.800781 L 162.839844 105.820312 C 163.246094 105.835938 163.6875 105.90625 163.820312 105.988281 C 164.328125 106.316406 163.671875 106.542969 161.902344 106.660156 C 156.355469 107.027344 151.796875 110.574219 148.773438 116.875 C 147 120.5625 146.3125 123.699219 146.265625 128.324219 C 146.234375 131.578125 146.40625 132.894531 147.144531 135.078125 C 148.808594 139.984375 152.863281 144.121094 158.882812 147.042969 C 162.609375 148.855469 165.355469 149.464844 169.875 149.492188 C 172.304688 149.507812 173.023438 149.445312 174.628906 149.113281 Z M 174.046875 139.515625 C 171.554688 139.175781 168.300781 138.117188 166.710938 137.128906 C 164.027344 135.457031 162.785156 134.09375 162.875 132.90625 C 162.941406 131.960938 163.316406 131.988281 163.859375 132.980469 C 165.359375 135.710938 171.773438 138.382812 176.8125 138.378906 C 180.878906 138.378906 186.078125 136.621094 189.027344 134.253906 C 189.960938 133.503906 190.484375 133.285156 190.484375 133.644531 C 190.484375 135.265625 184.71875 138.410156 180.140625 139.28125 C 178.433594 139.609375 175.535156 139.71875 174.046875 139.515625 Z M 178.847656 127.566406 C 178.523438 127.238281 178.503906 127.097656 178.59375 125.640625 C 178.78125 122.550781 179.765625 120.632812 181.105469 120.746094 C 181.605469 120.789062 181.777344 120.902344 182.054688 121.371094 C 182.335938 121.851562 182.386719 122.222656 182.386719 123.742188 C 182.386719 125.789062 182.144531 126.460938 181.082031 127.394531 C 180.351562 128.039062 179.394531 128.109375 178.847656 127.566406 Z M 170.984375 126.972656 C 170.320312 126.566406 170.140625 125.960938 170.246094 124.511719 C 170.339844 123.164062 170.941406 121.257812 171.453125 120.683594 C 171.949219 120.121094 172.730469 119.867188 173.234375 120.09375 C 174.261719 120.5625 174.769531 123.140625 174.214844 125.058594 C 173.683594 126.882812 172.226562 127.746094 170.984375 126.972656 Z M 183.777344 118.449219 C 183.777344 118.132812 181.667969 116.246094 180.710938 115.703125 C 180.019531 115.316406 179.691406 115.023438 179.691406 114.816406 C 179.691406 114.449219 180.300781 114.25 180.9375 114.410156 C 181.589844 114.574219 183.035156 115.554688 183.398438 116.078125 C 183.84375 116.722656 184.320312 118.058594 184.207031 118.351562 C 184.109375 118.605469 183.777344 118.683594 183.777344 118.449219 Z M 167.585938 116.5625 C 167.585938 116.039062 168.679688 115.066406 169.851562 114.546875 C 172.164062 113.523438 175.910156 113.359375 175.734375 114.296875 C 175.683594 114.539062 175.40625 114.601562 173.890625 114.703125 C 171.199219 114.878906 169.097656 115.59375 168.632812 116.484375 C 168.316406 117.101562 167.585938 117.160156 167.585938 116.5625 Z M 131.238281 198.375 C 130.90625 197.550781 130.289062 195.144531 130.289062 194.683594 C 130.289062 194.503906 130.039062 193.777344 129.734375 193.066406 C 129.003906 191.359375 127.695312 187.335938 126.84375 184.183594 C 126.46875 182.792969 125.847656 180.546875 125.460938 179.195312 C 125.078125 177.84375 124.492188 175.5625 124.152344 174.125 C 123.820312 172.6875 123.082031 169.667969 122.511719 167.417969 C 121.945312 165.167969 121.097656 161.671875 120.632812 159.648438 C 120.167969 157.625 119.542969 155.046875 119.242188 153.921875 C 118.941406 152.796875 118.503906 150.902344 118.273438 149.707031 C 118.042969 148.515625 117.667969 146.746094 117.4375 145.78125 C 115.800781 138.898438 113.339844 124.996094 112.785156 119.488281 C 112.683594 118.5 112.535156 117.105469 112.449219 116.394531 C 112.363281 115.683594 112.292969 114.027344 112.292969 112.714844 L 112.292969 110.328125 L 113.070312 109.667969 C 116.070312 107.125 119.640625 105.5 123.5 104.933594 C 124.488281 104.785156 125.519531 104.585938 125.789062 104.488281 C 126.46875 104.234375 135.304688 103.996094 140.511719 104.089844 C 145.402344 104.179688 149.355469 104.449219 153.230469 104.964844 C 153.875 105.050781 154.015625 105.320312 153.59375 105.667969 C 153.324219 105.890625 151.609375 105.832031 146.480469 105.421875 C 144.648438 105.273438 140.46875 105.175781 134.835938 105.140625 C 126.589844 105.097656 126.035156 105.109375 125.835938 105.382812 C 125.679688 105.59375 125.242188 105.714844 124.199219 105.832031 C 122.285156 106.050781 120.84375 106.402344 119.148438 107.050781 C 117.273438 107.777344 116.625 108.117188 114.722656 109.390625 L 113.109375 110.460938 L 113.109375 111.949219 C 113.109375 113.324219 113.226562 114.535156 113.847656 119.570312 C 114.304688 123.257812 115.566406 131.195312 116.039062 133.339844 C 116.304688 134.539062 116.828125 137.066406 117.203125 138.957031 C 117.578125 140.847656 118.105469 143.3125 118.371094 144.433594 C 118.640625 145.558594 119.105469 147.65625 119.402344 149.097656 C 119.699219 150.535156 120.382812 153.480469 120.921875 155.640625 C 121.460938 157.800781 122.621094 162.507812 123.5 166.109375 C 126.246094 177.367188 128.253906 184.945312 129.804688 189.910156 C 131.238281 194.476562 132.15625 199.074219 131.636719 199.070312 C 131.570312 199.070312 131.390625 198.753906 131.238281 198.375 Z M 241.921875 196.003906 C 241.921875 194.5625 241.496094 193.367188 240.714844 192.617188 C 240.21875 192.148438 239.921875 192.082031 239.109375 192.269531 C 238.683594 192.363281 238.574219 192.339844 238.574219 192.132812 C 238.574219 191.742188 239.339844 191.332031 240.101562 191.316406 C 241.210938 191.292969 242.132812 192.222656 242.519531 193.75 C 242.683594 194.402344 242.660156 194.6875 242.335938 195.890625 C 242.132812 196.648438 241.957031 197.269531 241.945312 197.269531 C 241.929688 197.269531 241.921875 196.699219 241.921875 196.003906 Z M 233.457031 196.839844 C 233.414062 196.796875 233.414062 196.023438 233.464844 195.125 C 233.53125 193.957031 233.492188 193.382812 233.34375 193.101562 C 233.074219 192.597656 233.289062 192.039062 234.269531 190.707031 C 234.90625 189.839844 235.035156 189.746094 235.570312 189.746094 L 236.167969 189.746094 L 235.40625 190.5625 C 234.988281 191.007812 234.566406 191.578125 234.46875 191.828125 C 234.375 192.078125 234.308594 193.152344 234.332031 194.246094 C 234.351562 195.324219 234.355469 196.289062 234.34375 196.386719 C 234.320312 196.585938 233.582031 196.96875 233.457031 196.839844 Z M 147.980469 189.132812 C 147.878906 188.886719 147.574219 187.839844 147.300781 186.804688 C 147.023438 185.769531 146.621094 184.40625 146.40625 183.773438 C 145.804688 182.039062 143.492188 174.007812 142.636719 170.6875 C 142.214844 169.070312 141.621094 166.890625 141.316406 165.851562 C 141.007812 164.804688 140.351562 162.230469 139.855469 160.125 C 139.359375 158.015625 138.589844 154.933594 138.140625 153.265625 C 137.695312 151.605469 136.710938 147.738281 135.949219 144.679688 C 134.46875 138.71875 132.035156 129.472656 131.273438 126.929688 C 131.015625 126.078125 130.398438 123.863281 129.898438 122.019531 C 129.394531 120.171875 128.871094 118.332031 128.730469 117.929688 C 128.339844 116.824219 126.242188 109.597656 126.113281 108.910156 C 125.984375 108.210938 126.128906 107.628906 126.4375 107.628906 C 126.6875 107.628906 126.851562 107.984375 126.851562 108.53125 C 126.851562 108.742188 127.082031 109.527344 127.359375 110.277344 C 128.128906 112.347656 130.203125 118.972656 130.953125 121.753906 C 131.324219 123.117188 131.832031 124.929688 132.09375 125.789062 C 133.707031 131.121094 137.40625 145.214844 140.296875 157.03125 C 140.835938 159.234375 141.574219 162.140625 141.941406 163.492188 C 142.304688 164.84375 143.171875 168.078125 143.867188 170.6875 C 145.421875 176.527344 147.839844 185.175781 148.347656 186.71875 C 148.574219 187.402344 148.707031 188.144531 148.675781 188.5625 C 148.597656 189.671875 148.292969 189.921875 147.980469 189.132812 Z M 188.523438 188.570312 C 188.34375 188.273438 188.195312 187.972656 188.195312 187.90625 C 188.195312 187.839844 188.082031 187.78125 187.949219 187.78125 C 187.8125 187.78125 187.695312 187.65625 187.683594 187.5 C 187.628906 186.734375 187.546875 186.414062 187 184.75 C 186.351562 182.78125 185.894531 181.078125 186.011719 181.078125 C 186.253906 181.078125 187.386719 181.855469 187.445312 182.058594 C 187.488281 182.195312 187.816406 183.269531 188.179688 184.445312 L 188.847656 186.585938 L 194.039062 186.691406 C 196.898438 186.746094 200.96875 186.867188 203.082031 186.960938 C 205.191406 187.058594 208.238281 187.175781 209.847656 187.230469 L 212.769531 187.328125 L 211.667969 188.421875 L 207.167969 188.269531 C 204.695312 188.183594 201.199219 188.042969 199.398438 187.953125 C 197.601562 187.863281 194.5625 187.785156 192.652344 187.785156 L 189.175781 187.785156 L 189.175781 188.351562 C 189.175781 189.125 188.917969 189.214844 188.523438 188.570312 Z M 133.066406 188.511719 C 133.066406 187.789062 134.15625 182.621094 134.691406 180.808594 C 134.953125 179.921875 135.402344 178.3125 135.6875 177.234375 C 136.539062 174.023438 138.285156 168.59375 138.539062 168.335938 C 139.039062 167.835938 138.992188 168.640625 138.402344 170.644531 C 138.074219 171.75 137.433594 174.015625 136.976562 175.675781 C 136.515625 177.34375 135.710938 180.070312 135.1875 181.742188 C 134.660156 183.417969 134.003906 185.699219 133.71875 186.816406 C 133.4375 187.929688 133.175781 188.875 133.136719 188.914062 C 133.097656 188.953125 133.066406 188.773438 133.066406 188.511719 Z M 135.6875 188.492188 C 135.6875 188.402344 135.875 187.859375 136.105469 187.285156 C 136.339844 186.71875 137.300781 184.074219 138.242188 181.414062 C 139.191406 178.75 140.027344 176.503906 140.113281 176.417969 C 140.472656 176.046875 140.425781 176.597656 139.945312 178.320312 C 139.335938 180.515625 138.585938 182.566406 137.648438 184.585938 C 137.273438 185.398438 136.777344 186.535156 136.546875 187.121094 C 136.152344 188.125 135.6875 188.871094 135.6875 188.492188 Z M 185.042969 176.171875 L 184.28125 175.691406 L 183.191406 172.289062 C 181.296875 166.371094 179.214844 160.160156 178.78125 159.128906 C 177.960938 157.179688 176.253906 152.050781 176.253906 151.535156 C 176.253906 151.035156 176.640625 150.488281 176.851562 150.695312 C 176.902344 150.75 177.109375 151.257812 177.308594 151.824219 C 177.507812 152.390625 177.863281 153.332031 178.101562 153.917969 C 179.589844 157.566406 180.652344 160.441406 181.945312 164.320312 C 184.09375 170.746094 185.933594 176.511719 185.863281 176.585938 C 185.828125 176.621094 185.460938 176.433594 185.042969 176.171875 Z M 135.316406 117.300781 C 134.316406 116.648438 131.320312 113.101562 129.34375 110.242188 C 128.878906 109.566406 128.304688 108.808594 128.074219 108.558594 C 127.558594 108.007812 127.601562 107.558594 128.175781 107.492188 C 128.535156 107.449219 128.757812 107.667969 129.808594 109.097656 C 130.90625 110.59375 133.167969 113.480469 134.980469 115.699219 C 135.585938 116.4375 136 117.34375 135.816406 117.523438 C 135.78125 117.558594 135.558594 117.457031 135.316406 117.300781 Z M 140.453125 115.34375 C 140.265625 115.082031 138.988281 114.105469 137.613281 113.175781 C 136.238281 112.25 134.449219 110.960938 133.640625 110.3125 C 132.832031 109.667969 131.90625 108.960938 131.589844 108.746094 C 130.113281 107.746094 129.765625 107.292969 130.476562 107.292969 C 131.027344 107.292969 132.8125 108.347656 134.613281 109.738281 C 135.519531 110.433594 136.699219 111.300781 137.238281 111.664062 C 137.777344 112.027344 138.550781 112.691406 138.957031 113.132812 C 139.84375 114.109375 140.964844 115.648438 140.863281 115.75 C 140.824219 115.785156 140.636719 115.605469 140.453125 115.34375 Z M 140.453125 115.34375 " fill-opacity="1" fill-rule="nonzero"/></g></svg>